<svg width="25" height="24" viewBox="0 0 25 24" fill="none" xmlns="http://www.w3.org/2000/svg">
<g id="logos:facebook" clip-path="url(#clip0_301_1222)">
<path id="Vector" d="M24.4 12C24.4 5.37262 19.0274 0 12.4 0C5.77262 0 0.399994 5.37253 0.399994 12C0.399994 17.9895 4.78824 22.954 10.525 23.8542V15.4688H7.47812V12H10.525V9.35625C10.525 6.34875 12.3166 4.6875 15.0575 4.6875C16.3705 4.6875 17.7437 4.92188 17.7437 4.92188V7.875H16.2306C14.7398 7.875 14.275 8.80003 14.275 9.74906V12H17.6031L17.0711 15.4688H14.275V23.8542C20.0117 22.954 24.4 17.9896 24.4 12Z" fill="#1877F2"/>
<path id="Vector_2" d="M17.0711 15.4688L17.6031 12H14.275V9.74906C14.275 8.79994 14.7399 7.875 16.2306 7.875H17.7437V4.92188C17.7437 4.92188 16.3705 4.6875 15.0575 4.6875C12.3166 4.6875 10.525 6.34875 10.525 9.35625V12H7.47812V15.4688H10.525V23.8542C11.1453 23.9514 11.7722 24.0002 12.4 24C13.0278 24.0002 13.6547 23.9514 14.275 23.8542V15.4688H17.0711Z" fill="white"/>
</g>
<defs>
<clipPath id="clip0_301_1222">
<rect width="24" height="24" fill="white" transform="translate(0.399994)"/>
</clipPath>
</defs>
</svg>
