<svg width="25" height="24" viewBox="0 0 25 24" fill="none" xmlns="http://www.w3.org/2000/svg">
<g id="logos:pinterest" clip-path="url(#clip0_301_1215)">
<path id="Vector" d="M0.399994 12.0002C0.399994 16.914 3.35481 21.1354 7.58303 22.9913C7.54928 22.1534 7.57702 21.1475 7.7919 20.2358C8.02262 19.2616 9.33596 13.6969 9.33596 13.6969C9.33596 13.6969 8.95262 12.9307 8.95262 11.7983C8.95262 10.0199 9.98331 8.69175 11.2669 8.69175C12.3585 8.69175 12.8858 9.51159 12.8858 10.4933C12.8858 11.5906 12.186 13.2319 11.8261 14.752C11.5254 16.025 12.4643 17.0632 13.7201 17.0632C15.9937 17.0632 17.525 14.143 17.525 10.6831C17.525 8.05303 15.7536 6.08447 12.5317 6.08447C8.89159 6.08447 6.62387 8.79909 6.62387 11.8313C6.62387 12.8768 6.93212 13.6141 7.41493 14.185C7.63693 14.4473 7.66778 14.5527 7.58743 14.8538C7.52987 15.0746 7.39768 15.6062 7.34293 15.8168C7.26306 16.1208 7.01678 16.2294 6.74209 16.1172C5.06546 15.4328 4.28462 13.5967 4.28462 11.5327C4.28462 8.12381 7.15956 4.03631 12.8611 4.03631C17.4426 4.03631 20.4581 7.35169 20.4581 10.9105C20.4581 15.618 17.841 19.1348 13.9831 19.1348C12.6876 19.1348 11.469 18.4345 11.0515 17.6391C11.0515 17.6391 10.3548 20.4039 10.2073 20.9378C9.95284 21.8631 9.45484 22.7878 8.99949 23.5086C10.1036 23.835 11.2491 24.0008 12.4005 24.0007C19.0271 24.0007 24.4001 18.6279 24.4001 12.0002C24.4001 5.37272 19.0271 0 12.4005 0C5.77318 0 0.399994 5.37272 0.399994 12.0002Z" fill="#CB1F27"/>
</g>
<defs>
<clipPath id="clip0_301_1215">
<rect width="24" height="24" fill="white" transform="translate(0.399994)"/>
</clipPath>
</defs>
</svg>
