<svg width="30" height="24" viewBox="0 0 30 24" fill="none" xmlns="http://www.w3.org/2000/svg">
<g id="logos:twitter" clip-path="url(#clip0_301_1213)">
<path id="Vector" d="M29.3986 2.92233C28.2978 3.41 27.1301 3.7301 25.9345 3.872C27.1799 3.12559 28.1361 1.94362 28.5864 0.53531C27.4025 1.23784 26.1072 1.73281 24.7566 1.99885C23.6564 0.826755 22.089 0.0942383 20.3542 0.0942383C17.0234 0.0942383 14.3229 2.79464 14.3229 6.12524C14.3229 6.59801 14.3763 7.05826 14.4791 7.49979C9.46662 7.24819 5.0226 4.84716 2.04786 1.19824C1.52882 2.08899 1.23141 3.12513 1.23141 4.23028C1.23141 6.32275 2.29625 8.16869 3.91447 9.2503C2.95671 9.2203 2.02002 8.96162 1.1826 8.49585C1.18226 8.52111 1.18226 8.54637 1.18226 8.57175C1.18226 11.4939 3.26119 13.9316 6.02015 14.4856C5.13202 14.7272 4.20043 14.7625 3.29655 14.589C4.06398 16.9851 6.29139 18.7287 8.93047 18.7775C6.86635 20.395 4.26574 21.3593 1.44017 21.3593C0.953281 21.3593 0.473281 21.3307 0.00143433 21.275C2.67049 22.9862 5.84067 23.9847 9.2466 23.9847C20.3402 23.9847 26.4065 14.7945 26.4065 6.82469C26.4065 6.5631 26.4007 6.303 26.389 6.0444C27.5698 5.19083 28.5889 4.1336 29.3986 2.92233Z" fill="#55ACEE"/>
</g>
<defs>
<clipPath id="clip0_301_1213">
<rect width="29.4" height="24" fill="white"/>
</clipPath>
</defs>
</svg>
