<svg width="25" height="24" viewBox="0 0 25 24" fill="none" xmlns="http://www.w3.org/2000/svg">
<g id="skill-icons:instagram" clip-path="url(#clip0_301_1217)">
<g id="Group">
<path id="Vector" d="M18.775 0H6.025C2.9184 0 0.400002 2.5184 0.400002 5.625V18.375C0.400002 21.4816 2.9184 24 6.025 24H18.775C21.8816 24 24.4 21.4816 24.4 18.375V5.625C24.4 2.5184 21.8816 0 18.775 0Z" fill="url(#paint0_radial_301_1217)"/>
<path id="Vector_2" d="M18.775 0H6.025C2.9184 0 0.400002 2.5184 0.400002 5.625V18.375C0.400002 21.4816 2.9184 24 6.025 24H18.775C21.8816 24 24.4 21.4816 24.4 18.375V5.625C24.4 2.5184 21.8816 0 18.775 0Z" fill="url(#paint1_radial_301_1217)"/>
<path id="Vector_3" d="M12.4008 2.625C9.85478 2.625 9.53519 2.63616 8.53525 2.68163C7.53719 2.72738 6.85591 2.88534 6.25985 3.11719C5.64316 3.35662 5.12013 3.67697 4.59906 4.19822C4.07753 4.71937 3.75719 5.24241 3.517 5.85881C3.2845 6.45506 3.12635 7.13662 3.08144 8.13422C3.03672 9.13425 3.025 9.45394 3.025 12.0001C3.025 14.5463 3.03625 14.8648 3.08163 15.8647C3.12756 16.8628 3.28553 17.5441 3.51719 18.1402C3.75681 18.7568 4.07716 19.2799 4.59841 19.8009C5.11938 20.3225 5.64241 20.6436 6.25863 20.883C6.85516 21.1148 7.53653 21.2728 8.53441 21.3186C9.53444 21.364 9.85375 21.3752 12.3997 21.3752C14.9461 21.3752 15.2646 21.364 16.2646 21.3186C17.2626 21.2728 17.9447 21.1148 18.5412 20.883C19.1576 20.6436 19.6799 20.3225 20.2008 19.8009C20.7223 19.2799 21.0425 18.7568 21.2828 18.1404C21.5133 17.5441 21.6715 16.8626 21.7184 15.8649C21.7633 14.865 21.775 14.5463 21.775 12.0001C21.775 9.45394 21.7633 9.13444 21.7184 8.13441C21.6715 7.13634 21.5133 6.45516 21.2828 5.85909C21.0425 5.24241 20.7223 4.71937 20.2008 4.19822C19.6793 3.67678 19.1578 3.35644 18.5406 3.11728C17.943 2.88534 17.2613 2.72728 16.2633 2.68163C15.2632 2.63616 14.9448 2.625 12.3979 2.625H12.4008ZM11.5598 4.31447C11.8095 4.31409 12.088 4.31447 12.4008 4.31447C14.9041 4.31447 15.2007 4.32347 16.1892 4.36838C17.1033 4.41019 17.5994 4.56291 17.9298 4.69125C18.3674 4.86112 18.6793 5.06428 19.0072 5.3925C19.3353 5.72062 19.5384 6.03309 19.7088 6.47062C19.8371 6.80062 19.99 7.29675 20.0316 8.21081C20.0765 9.19913 20.0863 9.49594 20.0863 11.9979C20.0863 14.4999 20.0765 14.7968 20.0316 15.7851C19.9898 16.6991 19.8371 17.1952 19.7088 17.5253C19.5389 17.9629 19.3353 18.2744 19.0072 18.6023C18.6791 18.9305 18.3676 19.1335 17.9298 19.3035C17.5998 19.4324 17.1033 19.5848 16.1892 19.6266C15.2009 19.6715 14.9041 19.6812 12.4008 19.6812C9.89753 19.6812 9.60081 19.6715 8.6126 19.6266C7.69853 19.5844 7.20241 19.4317 6.87166 19.3033C6.43422 19.1333 6.12166 18.9303 5.79353 18.6022C5.46541 18.274 5.26235 17.9623 5.092 17.5246C4.96366 17.1945 4.81075 16.6984 4.76913 15.7843C4.72422 14.796 4.71522 14.4992 4.71522 11.9956C4.71522 9.49209 4.72422 9.19678 4.76913 8.20847C4.81094 7.29441 4.96366 6.79828 5.092 6.46781C5.26197 6.03028 5.46541 5.71781 5.79363 5.38969C6.12175 5.06156 6.43422 4.85841 6.87175 4.68816C7.20222 4.55925 7.69853 4.40691 8.6126 4.36491C9.47744 4.32581 9.8126 4.31409 11.5598 4.31212V4.31447ZM17.4052 5.87109C16.7841 5.87109 16.2802 6.37453 16.2802 6.99572C16.2802 7.61681 16.7841 8.12072 17.4052 8.12072C18.0263 8.12072 18.5302 7.61681 18.5302 6.99572C18.5302 6.37463 18.0263 5.87072 17.4052 5.87072V5.87109ZM12.4008 7.18556C9.7421 7.18556 7.58641 9.34125 7.58641 12.0001C7.58641 14.6589 9.7421 16.8136 12.4008 16.8136C15.0597 16.8136 17.2146 14.6589 17.2146 12.0001C17.2146 9.34134 15.0595 7.18556 12.4007 7.18556H12.4008ZM12.4008 8.87503C14.1267 8.87503 15.5259 10.2741 15.5259 12.0001C15.5259 13.7259 14.1267 15.1252 12.4008 15.1252C10.6749 15.1252 9.27588 13.7259 9.27588 12.0001C9.27588 10.2741 10.6749 8.87503 12.4008 8.87503Z" fill="white"/>
</g>
</g>
<defs>
<radialGradient id="paint0_radial_301_1217" cx="0" cy="0" r="1" gradientUnits="userSpaceOnUse" gradientTransform="translate(6.775 25.8485) rotate(-90) scale(23.7858 22.1227)">
<stop stop-color="#FFDD55"/>
<stop offset="0.1" stop-color="#FFDD55"/>
<stop offset="0.5" stop-color="#FF543E"/>
<stop offset="1" stop-color="#C837AB"/>
</radialGradient>
<radialGradient id="paint1_radial_301_1217" cx="0" cy="0" r="1" gradientUnits="userSpaceOnUse" gradientTransform="translate(-3.62009 1.72884) rotate(78.681) scale(10.6324 43.827)">
<stop stop-color="#3771C8"/>
<stop offset="0.128" stop-color="#3771C8"/>
<stop offset="1" stop-color="#6600FF" stop-opacity="0"/>
</radialGradient>
<clipPath id="clip0_301_1217">
<rect width="24" height="24" fill="white" transform="translate(0.400002)"/>
</clipPath>
</defs>
</svg>
